<svg xmlns="http://www.w3.org/2000/svg" width="114" height="25" fill="none" viewBox="0 0 114 25">
    <path fill="#3639B4" fill-rule="evenodd" d="M23.176 3.895L9.164.073C8.962.024 8.76 0 8.534 0c-.405 0-.809.097-1.162.292l-6.236 3.53C.43 4.212 0 4.942 0 5.745v16.87c0 1.216 1.035 2.215 2.297 2.215h3.46c.277 0 .731-.22.858-.292l5.528-2.678c.48-.244.884-.536 1.162-.9.303-.39.48-.829.48-1.291v-8.666c0-.073.05-.122.126-.122h3.357c.53 0 .935.414.935.925v12.342c0 .17.075.34.202.462.126.122.303.195.48.195h3.66c1.262 0 2.297-.998 2.297-2.215V6.013c0-.974-.681-1.85-1.666-2.118zM12.27 19.62c0 .17-.05.341-.202.511-.152.195-.404.39-.707.536l-4.696 2.288c-.025 0-.05.025-.05.025-.026 0-.051 0-.076-.025-.05-.024-.05-.048-.05-.097V11.563c0-.073.075-.268.252-.438.202-.17.454-.268.681-.268h4.721c.076 0 .127.049.127.122v8.641zm10.098 3.895c.53 0 .96-.414.96-.925h-.026V6.061c0-.413-.277-.779-.681-.876L8.609 1.363c-.076-.024-.177-.048-.252-.048-.177 0-.329.048-.48.121L1.64 4.966c-.278.146-.454.462-.454.779V22.59c0 .511.404.925.934.925h2.878c.076 0 .126-.049.126-.122V11.587c0-.511.252-1.022.707-1.412.43-.39 1.01-.608 1.59-.608h9.695c1.262 0 2.297.998 2.297 2.215v11.611c0 .073.05.122.127.122h2.827zM91.013 9.737c1.465 0 2.803.34 3.99.974 1.186.657 2.12 1.558 2.776 2.677.682 1.169 1.01 2.483 1.01 3.92 0 1.411-.328 2.726-.984 3.87-.657 1.144-1.59 2.07-2.777 2.702-1.187.657-2.55.974-4.015.974-1.464 0-2.827-.317-4.014-.974-1.186-.633-2.12-1.558-2.777-2.702-.656-1.144-.984-2.459-.984-3.87 0-1.437.328-2.751.984-3.895.657-1.145 1.59-2.07 2.777-2.702 1.187-.658 2.55-.974 4.014-.974zm0 11.417c.758 0 1.389-.17 1.944-.487.581-.317.985-.755 1.313-1.363.303-.584.48-1.242.48-2.02 0-.78-.151-1.461-.48-2.045-.328-.585-.757-.998-1.313-1.34-.58-.316-1.211-.486-1.944-.486-.757 0-1.363.17-1.944.487-.58.34-1.01.779-1.338 1.363-.302.608-.48 1.266-.48 2.045 0 .779.152 1.436.48 2.02.329.584.758 1.023 1.338 1.339.581.316 1.187.487 1.944.487zM44.636 17.015c.656.73 1.262 1.534 1.792 2.362.53.828.96 1.582 1.288 2.24.303.705.454 1.168.454 1.46 0 .316-.1.608-.303.9-.176.293-.454.512-.782.682-.328.17-.707.244-1.136.244-.53 0-.96-.122-1.313-.365-.354-.22-.631-.512-.884-.852-.227-.317-.555-.78-.934-1.412l-1.64-2.63c-.582-.949-1.112-1.68-1.566-2.166-.43-.463-.884-.803-1.313-.974-.455-.17-1.035-.267-1.717-.267h-1.186v6.037c0 .9-.202 1.557-.632 1.996-.429.438-.984.657-1.666.657-.732 0-1.313-.244-1.716-.706-.405-.438-.607-1.095-.607-1.947V7.254c0-.925.203-1.582.657-2.02.43-.414 1.136-.633 2.095-.633h6.665c.934 0 1.742.048 2.399.121.681.098 1.287.244 1.843.487.656.244 1.262.633 1.767 1.144.505.512.909 1.096 1.161 1.753.278.657.404 1.363.404 2.094 0 1.509-.454 2.75-1.338 3.651-.782.803-1.918 1.387-3.408 1.777.555.365 1.11.828 1.616 1.387zm-2.02-5.112c.328-.34.48-.827.48-1.46 0-.487-.127-.925-.404-1.315-.278-.365-.631-.633-1.086-.827-.43-.17-1.363-.268-2.726-.268h-3.535v4.869h3.434c.959 0 1.767-.073 2.423-.244.631-.146 1.086-.39 1.414-.755zM64.303 15.993c0 1.022-.328 1.68-.96 1.996-.555.292-1.363.438-2.423.463H53.8c.026.681.203 1.29.48 1.825.303.609.732 1.047 1.237 1.34.505.291 1.086.438 1.717.438.43 0 .808-.05 1.161-.146.354-.074.682-.244 1.01-.439.328-.219.657-.438.934-.681l.265-.23c.24-.206.53-.456.871-.768.253-.22.581-.317 1.01-.317.455 0 .833.122 1.111.365.303.244.455.609.455 1.047 0 .365-.152.779-.43 1.266-.277.462-.707.925-1.262 1.339-.555.413-1.262.779-2.095 1.047-.834.267-1.793.413-2.879.413-2.474 0-4.443-.706-5.831-2.069-1.389-1.387-2.096-3.262-2.096-5.599 0-1.095.177-2.118.505-3.067.353-.95.858-1.777 1.515-2.458.656-.682 1.49-1.218 2.449-1.583.96-.34 2.02-.535 3.18-.535 1.516 0 2.828.316 3.914.925 1.11.608 1.919 1.436 2.474 2.41.53.973.808 1.996.808 3.018zm-10.452-.122h6.286c-.126-1.046-.429-1.85-.959-2.361-.555-.56-1.288-.852-2.197-.852-.858 0-1.565.292-2.12.852-.53.536-.858 1.339-1.01 2.361z" clip-rule="evenodd"/>
    <path fill="#3639B4" d="M80.182 12.171c-.404-.803-1.035-1.436-1.868-1.874-.808-.438-1.742-.657-2.777-.657-1.06 0-2.02.219-2.828.608-.63.317-1.262.804-1.817 1.412-.025-.365-.101-.706-.253-.998-.176-.34-.429-.609-.732-.779-.303-.17-.656-.268-1.035-.268-.606 0-1.11.195-1.464.585-.354.389-.53.973-.53 1.704v10.491c0 .78.201 1.363.58 1.802.404.438.909.657 1.54.657s1.162-.22 1.566-.633c.403-.414.605-1.023.605-1.826v-4.552c0-1.46.076-2.434.253-2.945.227-.633.606-1.12 1.136-1.485.505-.365 1.085-.536 1.691-.536.935 0 1.54.268 1.843.828.329.608.48 1.485.48 2.629v6.061c0 .78.202 1.363.58 1.802.405.438.91.657 1.566.657.631 0 1.136-.22 1.54-.633.379-.414.58-1.023.58-1.802v-6.767c0-.803-.05-1.485-.1-1.996-.126-.511-.303-1.022-.556-1.485zM113.154 17.99c-.404-.536-1.01-1.023-1.767-1.437-.757-.39-1.742-.73-2.929-.998-.959-.22-1.742-.414-2.297-.584-.53-.146-.959-.341-1.262-.56-.278-.195-.404-.438-.404-.755 0-.34.176-.608.555-.852.404-.243.934-.39 1.565-.39.606 0 1.111.098 1.439.293.354.194.682.462.935.803.353.438.681.779.959.998.328.244.707.365 1.136.365.606 0 1.06-.146 1.414-.462.328-.317.505-.706.505-1.193 0-.438-.152-.876-.455-1.315-.277-.413-.707-.827-1.262-1.168-.53-.34-1.212-.609-2.02-.828-.808-.194-1.691-.292-2.701-.292-1.262 0-2.373.195-3.282.609-.909.414-1.616.95-2.095 1.63-.48.682-.707 1.437-.707 2.192 0 .876.277 1.606.782 2.215.505.584 1.187 1.07 2.045 1.412.833.34 1.894.681 3.206.998 1.111.268 1.919.535 2.399.803.429.244.631.633.631 1.193 0 .34-.202.633-.606.9-.429.293-1.01.439-1.717.439-.883 0-1.565-.146-2.07-.439-.505-.292-.934-.754-1.287-1.363-.202-.365-.43-.633-.657-.852-.252-.219-.631-.34-1.085-.34-.531 0-.96.17-1.288.486-.353.341-.505.73-.505 1.193 0 .658.253 1.315.732 1.948.48.633 1.237 1.168 2.247 1.582.985.414 2.197.608 3.585.608 1.439 0 2.676-.194 3.711-.56 1.035-.389 1.818-.949 2.374-1.703.53-.755.807-1.656.807-2.703 0-.657-.227-1.314-.631-1.874z"/>
</svg>
